<svg width="32" height="32" viewBox="0 0 32 32" fill="none" xmlns="http://www.w3.org/2000/svg">
<g clip-path="url(#clip0_17_2)">
<path d="M12 4C14.76 4 17 6.24 17 9C17 11.76 14.76 14 12 14C9.24 14 7 11.76 7 9C7 6.24 9.24 4 12 4ZM12 2C8.13 2 5 5.13 5 9C5 12.87 8.13 16 12 16C15.87 16 19 12.87 19 9C19 5.13 15.87 2 12 2Z" fill="#E7E9EA"/>
<path d="M22 30H20V25C20 22.24 17.76 20 15 20H9C6.24 20 4 22.24 4 25V30H2V25C2 21.14 5.14 18 9 18H15C18.86 18 22 21.14 22 25V30Z" fill="#E7E9EA"/>
<path d="M20 2V4C22.76 4 25 6.24 25 9C25 11.76 22.76 14 20 14V16C23.87 16 27 12.87 27 9C27 5.13 23.87 2 20 2Z" fill="#E7E9EA"/>
<path d="M30 30H28V25C28 22.24 25.76 20 23 20V18C26.86 18 30 21.14 30 25V30Z" fill="#E7E9EA"/>
</g>
<defs>
<clipPath id="clip0_17_2">
<rect width="32" height="32" fill="white"/>
</clipPath>
</defs>
</svg>
