<svg width="384" height="384" viewBox="0 0 384 384" fill="none" xmlns="http://www.w3.org/2000/svg">
<path d="M280.5 234C295.5 210.4 304.3 182.4 304.3 152.3C304.3 68.2 236.2 0 152.2 0C68.1 0 0 68.2 0 152.3C0 236.4 68.1 304.6 152.1 304.6C182.6 304.6 211 295.6 234.8 280.2L241.7 275.4L350.3 384L384 349.7L275.5 241.1L280.5 234ZM237.4 67.2C260.1 89.9 272.6 120.1 272.6 152.2C272.6 184.3 260.1 214.5 237.4 237.2C214.7 259.9 184.5 272.4 152.4 272.4C120.3 272.4 90.1 259.9 67.4 237.2C44.7 214.5 32.2 184.3 32.2 152.2C32.2 120.1 44.7 89.9 67.4 67.2C90.1 44.5 120.3 32 152.4 32C184.5 32 214.7 44.5 237.4 67.2Z" fill="#71767A"/>
</svg>
