<svg width="24" height="24" viewBox="0 0 24 24" fill="none" xmlns="http://www.w3.org/2000/svg">
<path d="M12 2C6.489 2 2 6.489 2 12C2 17.511 6.489 22 12 22C17.511 22 22 17.511 22 12C22 6.489 17.511 2 12 2ZM12 4C16.4301 4 20 7.56988 20 12C20 16.4301 16.4301 20 12 20C7.56988 20 4 16.4301 4 12C4 7.56988 7.56988 4 12 4Z" fill="#E7E9EA"/>
<path d="M8.99999 11.9995C8.99999 12.1308 8.97413 12.2609 8.92387 12.3822C8.87362 12.5035 8.79996 12.6137 8.7071 12.7066C8.61424 12.7995 8.50401 12.8731 8.38268 12.9234C8.26136 12.9737 8.13132 12.9995 8 12.9995C7.86868 12.9995 7.73864 12.9737 7.61732 12.9234C7.49599 12.8731 7.38575 12.7995 7.29289 12.7066C7.20003 12.6137 7.12637 12.5035 7.07612 12.3822C7.02586 12.2609 7 12.1308 7 11.9995C7 11.8682 7.02587 11.7381 7.07612 11.6168C7.12638 11.4955 7.20004 11.3853 7.29289 11.2924C7.38575 11.1996 7.49599 11.1259 7.61732 11.0756C7.73864 11.0254 7.86868 10.9995 8 10.9995C8.26521 10.9995 8.51956 11.1049 8.7071 11.2924C8.89463 11.48 8.99999 11.7343 8.99999 11.9995Z" fill="#E7E9EA"/>
<path d="M13 11.9995C13 12.1308 12.9741 12.2609 12.9239 12.3822C12.8736 12.5035 12.8 12.6137 12.7071 12.7066C12.6142 12.7995 12.504 12.8731 12.3827 12.9234C12.2614 12.9737 12.1313 12.9995 12 12.9995C11.8687 12.9995 11.7386 12.9737 11.6173 12.9234C11.496 12.8731 11.3858 12.7995 11.2929 12.7066C11.2 12.6137 11.1264 12.5035 11.0761 12.3822C11.0259 12.2609 11 12.1308 11 11.9995C11 11.8682 11.0259 11.7381 11.0761 11.6168C11.1264 11.4955 11.2 11.3853 11.2929 11.2924C11.3858 11.1996 11.496 11.1259 11.6173 11.0756C11.7386 11.0254 11.8687 10.9995 12 10.9995C12.2652 10.9995 12.5196 11.1049 12.7071 11.2924C12.8946 11.48 13 11.7343 13 11.9995Z" fill="#E7E9EA"/>
<path d="M17 11.9995C17 12.1308 16.9741 12.2609 16.9239 12.3822C16.8736 12.5035 16.8 12.6137 16.7071 12.7066C16.6142 12.7995 16.504 12.8731 16.3827 12.9234C16.2613 12.9737 16.1313 12.9995 16 12.9995C15.8687 12.9995 15.7386 12.9737 15.6173 12.9234C15.496 12.8731 15.3857 12.7995 15.2929 12.7066C15.2 12.6137 15.1264 12.5035 15.0761 12.3822C15.0259 12.2609 15 12.1308 15 11.9995C15 11.7343 15.1054 11.48 15.2929 11.2924C15.4804 11.1049 15.7348 10.9995 16 10.9995C16.1313 10.9995 16.2613 11.0254 16.3827 11.0756C16.504 11.1259 16.6142 11.1996 16.7071 11.2924C16.8 11.3853 16.8736 11.4955 16.9239 11.6168C16.9741 11.7381 17 11.8682 17 11.9995Z" fill="#E7E9EA"/>
</svg>
