<svg width="512" height="512" viewBox="0 0 512 512" fill="none" xmlns="http://www.w3.org/2000/svg">
<path d="M256 32C182 32 121.8 90.7 121.8 164.7C121.8 181.1 125.3 199 131.6 215.1H131.5L132.1 216.3C132.6 217.4 133.1 218.5 133.6 219.6L256 480L377.8 220.9L378.4 219.7C378.9 218.6 379.5 217.5 380 216.3L380.4 215.2C386.9 199.1 390.2 182.1 390.2 164.9C390.2 90.7 330 32 256 32ZM365.1 209.4L364.9 209.9C364.6 210.5 364.3 211.2 364 211.8L363 213.9L256 441.3L148.9 213.9L148 211.9C147.7 211.3 147.4 210.7 147.2 210.1C141.3 195.6 138.1 179.5 138.1 164.7C138.1 99.7 191 48.2 256.1 48.2C321.2 48.2 374.1 99.6 374.1 164.7C374 179.9 371 194.9 365.1 209.4Z" fill="#1DA1F2"/>
<path d="M256 96C220.7 96 192 124.7 192 160C192 195.3 220.7 224 256 224C291.3 224 320 195.3 320 160C320 124.7 291.3 96 256 96ZM256 206.9C230.1 206.9 209.1 185.9 209.1 160C209.1 134.1 230.1 113.1 256 113.1C281.9 113.1 302.9 134.1 302.9 160C302.9 185.9 281.9 206.9 256 206.9Z" fill="#1DA1F2"/>
</svg>
