<svg width="58" height="57" viewBox="0 0 58 57" fill="none" xmlns="http://www.w3.org/2000/svg">
<g clip-path="url(#clip0_25_16)">
<path d="M6.688 0C3 0 0 3 0 6.688C0 10.376 3 13.376 6.688 13.376C10.376 13.376 13.376 10.376 13.376 6.688C13.376 3 10.375 0 6.688 0ZM6.688 10.375C4.654 10.375 3 8.721 3 6.688C3 4.655 4.654 3 6.688 3C8.722 3 10.376 4.654 10.376 6.688C10.376 8.722 8.721 10.375 6.688 10.375Z" fill="#1DA1F2"/>
<path d="M18.75 8.18848H56.125C56.953 8.18848 57.625 7.51748 57.625 6.68848C57.625 5.85948 56.953 5.18848 56.125 5.18848H18.75C17.921 5.18848 17.25 5.85948 17.25 6.68848C17.25 7.51748 17.921 8.18848 18.75 8.18848Z" fill="#1DA1F2"/>
<path d="M6.688 21.375C3 21.375 0 24.375 0 28.063C0 31.751 3 34.751 6.688 34.751C10.376 34.751 13.376 31.751 13.376 28.063C13.376 24.375 10.375 21.375 6.688 21.375ZM6.688 31.75C4.654 31.75 3 30.096 3 28.063C3 26.03 4.654 24.375 6.688 24.375C8.722 24.375 10.376 26.029 10.376 28.063C10.376 30.097 8.721 31.75 6.688 31.75Z" fill="#1DA1F2"/>
<path d="M56.125 26.5635H18.75C17.921 26.5635 17.25 27.2345 17.25 28.0635C17.25 28.8925 17.921 29.5635 18.75 29.5635H56.125C56.953 29.5635 57.625 28.8925 57.625 28.0635C57.625 27.2345 56.953 26.5635 56.125 26.5635Z" fill="#1DA1F2"/>
<path d="M6.688 42.75C3 42.75 0 45.75 0 49.438C0 53.126 3 56.126 6.688 56.126C10.376 56.126 13.376 53.126 13.376 49.438C13.376 45.75 10.375 42.75 6.688 42.75ZM6.688 53.125C4.654 53.125 3 51.471 3 49.438C3 47.405 4.654 45.75 6.688 45.75C8.722 45.75 10.376 47.404 10.376 49.438C10.376 51.472 8.721 53.125 6.688 53.125Z" fill="#1DA1F2"/>
<path d="M56.125 47.9385H18.75C17.921 47.9385 17.25 48.6105 17.25 49.4385C17.25 50.2665 17.921 50.9385 18.75 50.9385H56.125C56.953 50.9385 57.625 50.2665 57.625 49.4385C57.625 48.6105 56.953 47.9385 56.125 47.9385Z" fill="#1DA1F2"/>
</g>
<defs>
<clipPath id="clip0_25_16">
<rect width="57.625" height="56.125" fill="white"/>
</clipPath>
</defs>
</svg>
