<svg width="256" height="256" viewBox="0 0 256 256" fill="none" xmlns="http://www.w3.org/2000/svg">
<g clip-path="url(#clip0_25_23)">
<path d="M128 224C181.019 224 224 181.019 224 128C224 74.9807 181.019 32 128 32C74.9807 32 32 74.9807 32 128C32 181.019 74.9807 224 128 224Z" stroke="#1DA1F2" stroke-width="16" stroke-linecap="round" stroke-linejoin="round"/>
<path d="M92 120C98.6274 120 104 114.627 104 108C104 101.373 98.6274 96 92 96C85.3726 96 80 101.373 80 108C80 114.627 85.3726 120 92 120Z" fill="#1DA1F2"/>
<path d="M164 120C170.627 120 176 114.627 176 108C176 101.373 170.627 96 164 96C157.373 96 152 101.373 152 108C152 114.627 157.373 120 164 120Z" fill="#1DA1F2"/>
<path d="M169.6 152C165.371 159.286 159.303 165.333 152.002 169.537C144.701 173.741 136.425 175.954 128 175.954C119.576 175.954 111.299 173.741 103.999 169.537C96.698 165.333 90.6295 159.286 86.4004 152" stroke="#1DA1F2" stroke-width="16" stroke-linecap="round" stroke-linejoin="round"/>
</g>
<defs>
<clipPath id="clip0_25_23">
<rect width="256" height="256" fill="white"/>
</clipPath>
</defs>
</svg>
