<svg width="64" height="64" viewBox="0 0 64 64" fill="none" xmlns="http://www.w3.org/2000/svg">
<path d="M51.7996 50.3998H12.2996C9.99959 50.3998 8.09961 48.4998 8.09961 46.1998V17.9998C8.09961 15.6998 9.99959 13.7998 12.2996 13.7998H51.7996C54.0996 13.7998 55.9996 15.6998 55.9996 17.9998V46.1998C55.9996 48.4998 54.0996 50.3998 51.7996 50.3998ZM12.1996 16.4998C11.3996 16.4998 10.7996 17.0998 10.7996 17.8998V46.0998C10.7996 46.8998 11.3996 47.4998 12.1996 47.4998H51.6996C52.4996 47.4998 53.0996 46.8998 53.0996 46.0998V17.8998C53.0996 17.0998 52.4996 16.4998 51.6996 16.4998H12.1996Z" fill="#1DA1F2"/>
<path d="M39.0996 30.5C35.9996 30.5 33.5996 28 33.5996 25C33.5996 22 36.0996 19.5 39.0996 19.5C42.0996 19.5 44.5996 22 44.5996 25C44.5996 28 42.0996 30.5 39.0996 30.5ZM39.0996 22C37.4996 22 36.1996 23.3 36.1996 24.9C36.1996 26.5 37.4996 27.8 39.0996 27.8C40.6996 27.8 41.9996 26.5 41.9996 24.9C41.9996 23.3 40.6996 22 39.0996 22Z" fill="#1DA1F2"/>
<path d="M46.6 49.8996L23.5 28.1996L10.3 40.3996L8.5 38.4996L23.5 24.5996L48.4 47.9996L46.6 49.8996Z" fill="#1DA1F2"/>
<path d="M53.8 42.6996L46.1 36.4996L39.7 41.7996L38 39.6996L46.1 33.0996L55.4 40.6996L53.8 42.6996Z" fill="#1DA1F2"/>
</svg>
