<svg width="64" height="64" viewBox="0 0 64 64" fill="none" xmlns="http://www.w3.org/2000/svg">
<path d="M17.9999 54.3996H15.4999L16.9999 52.2996C18.0999 50.6996 18.8999 48.7996 19.2999 46.2996C12.1999 43.0996 8.3999 37.0996 8.3999 29.1996C8.3999 17.0996 17.4999 9.59961 32.1999 9.59961C46.8999 9.59961 55.9999 17.0996 55.9999 29.1996C55.9999 41.3996 47.0999 48.7996 32.1999 48.7996C31.8999 48.7996 31.4999 48.7996 31.1999 48.7996C28.7999 51.3996 24.7999 54.3996 17.9999 54.3996ZM31.9999 12.1996C18.6999 12.1996 10.7999 18.4996 10.7999 29.1996C10.7999 38.2996 16.3999 42.3996 20.9999 44.2996L21.8999 44.6996L21.7999 45.6996C21.4999 47.9996 20.9999 49.9996 20.1999 51.6996C24.9999 51.0996 27.7999 48.6996 29.2999 46.6996L29.6999 46.1996H30.5999C30.9999 46.1996 31.4999 46.1996 31.8999 46.1996C50.9999 46.1996 53.0999 34.2996 53.0999 29.1996C53.1999 18.5996 45.2999 12.1996 31.9999 12.1996Z" fill="#657786"/>
</svg>
