<svg width="256" height="256" viewBox="0 0 256 256" fill="none" xmlns="http://www.w3.org/2000/svg">
<g clip-path="url(#clip0_23_10)">
<path d="M128 216C128 216 28 160 28 92.0001C28 79.9789 32.1649 68.3291 39.7862 59.0327C47.4075 49.7362 58.0143 43.3674 69.802 41.0099C81.5897 38.6523 93.8301 40.4517 104.441 46.1018C115.051 51.7519 123.376 60.9037 128 72.0001C132.624 60.9037 140.949 51.7519 151.559 46.1018C162.17 40.4517 174.41 38.6523 186.198 41.0099C197.986 43.3674 208.593 49.7362 216.214 59.0327C223.835 68.3291 228 79.9789 228 92.0001C228 160 128 216 128 216Z" stroke="#657786" stroke-width="16" stroke-linecap="round" stroke-linejoin="round"/>
</g>
<defs>
<clipPath id="clip0_23_10">
<rect width="256" height="256" fill="white"/>
</clipPath>
</defs>
</svg>
